<svg width="111" height="31" viewBox="0 0 111 31" fill="none" xmlns="http://www.w3.org/2000/svg">
<path d="M16.784 19.0621C19.6629 17.4531 21.8644 16.2271 22.0525 16.1314C22.6546 15.8057 23.2756 14.9437 22.0525 14.2733C21.6574 14.0626 19.5312 12.875 16.784 11.3425L13.002 15.2119L16.784 19.0621Z" fill="#FFD400"/>
<path d="M13.0019 15.2119L0.921875 27.6054C1.20412 27.6437 1.52399 27.5671 1.90032 27.3564C2.69059 26.9158 11.0826 22.2419 16.7839 19.0621L13.0019 15.2119Z" fill="#FF3333"/>
<path d="M13.0021 15.2119L16.7842 11.3425C16.7842 11.3425 2.7473 3.54632 1.90058 3.08659C1.5807 2.89504 1.2232 2.83757 0.90332 2.89504L13.0021 15.2119Z" fill="#48FF48"/>
<path d="M13.002 15.2119L0.903176 2.89502C0.413956 3.00995 0 3.45052 0 4.35082C0 5.78747 0 24.9428 0 26.1496C0 26.9732 0.319875 27.567 0.921993 27.6245L13.002 15.2119Z" fill="#3BCCFF"/>
<path d="M29.6807 9C29.6203 9 29.5689 8.97884 29.5266 8.93653C29.4843 8.89421 29.4631 8.84283 29.4631 8.78238V2.87958C29.4631 2.81308 29.4843 2.75868 29.5266 2.71636C29.5689 2.67405 29.6203 2.65289 29.6807 2.65289H31.8931C32.5037 2.65289 33.0054 2.74659 33.3983 2.93398C33.7973 3.12137 34.0965 3.39943 34.296 3.76817C34.5015 4.13691 34.6073 4.58725 34.6133 5.1192C34.6254 5.38517 34.6315 5.62092 34.6315 5.82645C34.6315 6.03197 34.6254 6.2647 34.6133 6.52463C34.6012 7.0868 34.4985 7.55226 34.305 7.92099C34.1116 8.28368 33.8184 8.5557 33.4255 8.73705C33.0386 8.91235 32.543 9 31.9385 9H29.6807ZM30.7235 7.95726H31.8931C32.2317 7.95726 32.5067 7.9089 32.7183 7.81218C32.9298 7.71547 33.084 7.56132 33.1807 7.34975C33.2835 7.13214 33.3379 6.84803 33.3439 6.49743C33.35 6.31608 33.353 6.15891 33.353 6.02593C33.359 5.8869 33.359 5.75089 33.353 5.6179C33.353 5.47887 33.35 5.3217 33.3439 5.1464C33.3318 4.65072 33.2079 4.28501 32.9722 4.04926C32.7364 3.81351 32.3616 3.69563 31.8478 3.69563H30.7235V7.95726ZM37.8152 9.09067C37.3316 9.09067 36.9236 9.00604 36.5911 8.83679C36.2647 8.66753 36.0139 8.42876 35.8386 8.12047C35.6693 7.81218 35.5726 7.45251 35.5484 7.04146C35.5424 6.93266 35.5393 6.79967 35.5393 6.6425C35.5393 6.48534 35.5424 6.35235 35.5484 6.24354C35.5726 5.82645 35.6723 5.46678 35.8476 5.16453C36.029 4.85625 36.2828 4.61747 36.6093 4.44822C36.9417 4.27896 37.3437 4.19433 37.8152 4.19433C38.2867 4.19433 38.6857 4.27896 39.0121 4.44822C39.3446 4.61747 39.5985 4.85625 39.7738 5.16453C39.9551 5.46678 40.0579 5.82645 40.082 6.24354C40.0881 6.35235 40.0911 6.48534 40.0911 6.6425C40.0911 6.79967 40.0881 6.93266 40.082 7.04146C40.0579 7.45251 39.9581 7.81218 39.7828 8.12047C39.6136 8.42876 39.3627 8.66753 39.0302 8.83679C38.7038 9.00604 38.2988 9.09067 37.8152 9.09067ZM37.8152 8.19301C38.1356 8.19301 38.3834 8.09327 38.5587 7.89379C38.734 7.68826 38.8308 7.38904 38.8489 6.99613C38.8549 6.90545 38.858 6.78758 38.858 6.6425C38.858 6.49743 38.8549 6.37955 38.8489 6.28888C38.8308 5.90201 38.734 5.60581 38.5587 5.40028C38.3834 5.19476 38.1356 5.092 37.8152 5.092C37.4948 5.092 37.247 5.19476 37.0717 5.40028C36.8964 5.60581 36.7997 5.90201 36.7815 6.28888C36.7755 6.37955 36.7725 6.49743 36.7725 6.6425C36.7725 6.78758 36.7755 6.90545 36.7815 6.99613C36.7997 7.38904 36.8964 7.68826 37.0717 7.89379C37.247 8.09327 37.4948 8.19301 37.8152 8.19301ZM42.2505 9C42.1658 9 42.1024 8.97884 42.0601 8.93653C42.0177 8.89421 41.9815 8.83981 41.9513 8.77332L40.6546 4.56609C40.6486 4.53587 40.6456 4.50867 40.6456 4.48449C40.6456 4.43008 40.6637 4.38475 40.7 4.34848C40.7423 4.30616 40.7876 4.28501 40.836 4.28501H41.507C41.5795 4.28501 41.6369 4.30616 41.6792 4.34848C41.7215 4.38475 41.7457 4.42102 41.7518 4.45728L42.6404 7.45856L43.5834 4.48449C43.5955 4.44217 43.6227 4.39986 43.665 4.35754C43.7073 4.30919 43.7708 4.28501 43.8554 4.28501H44.3088C44.3934 4.28501 44.4568 4.30919 44.4992 4.35754C44.5415 4.39986 44.5687 4.44217 44.5808 4.48449L45.5238 7.45856L46.4124 4.45728C46.4184 4.42102 46.4396 4.38475 46.4758 4.34848C46.5181 4.30616 46.5756 4.28501 46.6481 4.28501H47.3191C47.3735 4.28501 47.4188 4.30616 47.4551 4.34848C47.4974 4.38475 47.5186 4.43008 47.5186 4.48449C47.5186 4.50867 47.5125 4.53587 47.5004 4.56609L46.2038 8.77332C46.1857 8.83981 46.1524 8.89421 46.1041 8.93653C46.0618 8.97884 45.9983 9 45.9137 9H45.3243C45.2397 9 45.1732 8.97884 45.1248 8.93653C45.0764 8.89421 45.0432 8.83981 45.0251 8.77332L44.0821 5.90805L43.1391 8.77332C43.1149 8.83981 43.0786 8.89421 43.0303 8.93653C42.9879 8.97884 42.9215 9 42.8308 9H42.2505ZM48.6185 9C48.5581 9 48.5067 8.97884 48.4644 8.93653C48.4221 8.89421 48.4009 8.84283 48.4009 8.78238V4.50262C48.4009 4.44217 48.4221 4.39079 48.4644 4.34848C48.5067 4.30616 48.5581 4.28501 48.6185 4.28501H49.3621C49.4225 4.28501 49.4739 4.30616 49.5162 4.34848C49.5585 4.39079 49.5797 4.44217 49.5797 4.50262V4.87438C49.7368 4.68094 49.9363 4.52076 50.1781 4.39381C50.426 4.26083 50.7312 4.19433 51.0939 4.19433C51.4627 4.19433 51.783 4.27896 52.0551 4.44822C52.3271 4.61143 52.5356 4.84416 52.6807 5.1464C52.8318 5.44864 52.9074 5.81133 52.9074 6.23447V8.78238C52.9074 8.84283 52.8862 8.89421 52.8439 8.93653C52.8016 8.97884 52.7502 9 52.6898 9H51.8918C51.8314 9 51.78 8.97884 51.7377 8.93653C51.6954 8.89421 51.6742 8.84283 51.6742 8.78238V6.28888C51.6742 5.93828 51.5866 5.66324 51.4113 5.46375C51.242 5.26427 50.9942 5.16453 50.6678 5.16453C50.3534 5.16453 50.1026 5.26427 49.9152 5.46375C49.7278 5.66324 49.6341 5.93828 49.6341 6.28888V8.78238C49.6341 8.84283 49.6129 8.89421 49.5706 8.93653C49.5283 8.97884 49.4769 9 49.4165 9H48.6185ZM54.2858 9C54.2254 9 54.174 8.97884 54.1317 8.93653C54.0894 8.89421 54.0682 8.84283 54.0682 8.78238V2.77984C54.0682 2.71939 54.0894 2.66801 54.1317 2.62569C54.174 2.58338 54.2254 2.56222 54.2858 2.56222H55.0384C55.0989 2.56222 55.1502 2.58338 55.1926 2.62569C55.2349 2.66801 55.256 2.71939 55.256 2.77984V8.78238C55.256 8.84283 55.2349 8.89421 55.1926 8.93653C55.1502 8.97884 55.0989 9 55.0384 9H54.2858ZM58.5443 9.09067C58.0607 9.09067 57.6526 9.00604 57.3202 8.83679C56.9938 8.66753 56.7429 8.42876 56.5676 8.12047C56.3983 7.81218 56.3016 7.45251 56.2774 7.04146C56.2714 6.93266 56.2684 6.79967 56.2684 6.6425C56.2684 6.48534 56.2714 6.35235 56.2774 6.24354C56.3016 5.82645 56.4014 5.46678 56.5767 5.16453C56.758 4.85625 57.0119 4.61747 57.3383 4.44822C57.6708 4.27896 58.0728 4.19433 58.5443 4.19433C59.0158 4.19433 59.4147 4.27896 59.7411 4.44822C60.0736 4.61747 60.3275 4.85625 60.5028 5.16453C60.6841 5.46678 60.7869 5.82645 60.8111 6.24354C60.8171 6.35235 60.8202 6.48534 60.8202 6.6425C60.8202 6.79967 60.8171 6.93266 60.8111 7.04146C60.7869 7.45251 60.6872 7.81218 60.5119 8.12047C60.3426 8.42876 60.0917 8.66753 59.7593 8.83679C59.4329 9.00604 59.0279 9.09067 58.5443 9.09067ZM58.5443 8.19301C58.8646 8.19301 59.1125 8.09327 59.2878 7.89379C59.4631 7.68826 59.5598 7.38904 59.5779 6.99613C59.584 6.90545 59.587 6.78758 59.587 6.6425C59.587 6.49743 59.584 6.37955 59.5779 6.28888C59.5598 5.90201 59.4631 5.60581 59.2878 5.40028C59.1125 5.19476 58.8646 5.092 58.5443 5.092C58.2239 5.092 57.976 5.19476 57.8007 5.40028C57.6254 5.60581 57.5287 5.90201 57.5106 6.28888C57.5045 6.37955 57.5015 6.49743 57.5015 6.6425C57.5015 6.78758 57.5045 6.90545 57.5106 6.99613C57.5287 7.38904 57.6254 7.68826 57.8007 7.89379C57.976 8.09327 58.2239 8.19301 58.5443 8.19301ZM63.1939 9.09067C62.8796 9.09067 62.5955 9.03022 62.3416 8.90933C62.0877 8.78238 61.8852 8.61615 61.7341 8.41063C61.589 8.19906 61.5165 7.96331 61.5165 7.70338C61.5165 7.28024 61.6857 6.94475 62.0243 6.69691C62.3688 6.44302 62.8222 6.27377 63.3844 6.18914L64.6266 6.00779V5.81738C64.6266 5.5635 64.5631 5.36704 64.4362 5.22801C64.3092 5.08897 64.0916 5.01946 63.7833 5.01946C63.5657 5.01946 63.3874 5.06479 63.2483 5.15547C63.1154 5.24009 63.0156 5.35495 62.9491 5.50002C62.9008 5.57861 62.8312 5.6179 62.7406 5.6179H62.0243C61.9578 5.6179 61.9064 5.59976 61.8701 5.5635C61.8399 5.52723 61.8248 5.47887 61.8248 5.41842C61.8308 5.3217 61.8701 5.20383 61.9427 5.06479C62.0152 4.92576 62.13 4.79277 62.2872 4.66583C62.4444 4.53285 62.6469 4.42102 62.8947 4.33034C63.1426 4.23967 63.4418 4.19433 63.7924 4.19433C64.1732 4.19433 64.4936 4.24269 64.7535 4.33941C65.0195 4.43008 65.2311 4.554 65.3882 4.71117C65.5454 4.86834 65.6602 5.0527 65.7328 5.26427C65.8053 5.47584 65.8416 5.6995 65.8416 5.93525V8.78238C65.8416 8.84283 65.8204 8.89421 65.7781 8.93653C65.7358 8.97884 65.6844 9 65.624 9H64.8895C64.823 9 64.7686 8.97884 64.7263 8.93653C64.69 8.89421 64.6719 8.84283 64.6719 8.78238V8.42876C64.5933 8.54361 64.4875 8.65242 64.3546 8.75518C64.2216 8.8519 64.0584 8.93351 63.8649 9C63.6775 9.06045 63.4539 9.09067 63.1939 9.09067ZM63.5022 8.22928C63.7138 8.22928 63.9042 8.18394 64.0735 8.09327C64.2488 8.0026 64.3848 7.86357 64.4815 7.67617C64.5843 7.48274 64.6356 7.24094 64.6356 6.95079V6.76038L63.7289 6.90545C63.3723 6.95986 63.1063 7.04751 62.931 7.16841C62.7557 7.2893 62.668 7.4374 62.668 7.6127C62.668 7.74569 62.7073 7.86054 62.7859 7.95726C62.8705 8.04793 62.9763 8.11745 63.1033 8.16581C63.2302 8.20812 63.3632 8.22928 63.5022 8.22928ZM68.7548 9.09067C68.4405 9.09067 68.1624 9.03929 67.9206 8.93653C67.6849 8.82772 67.4884 8.6766 67.3313 8.48316C67.1741 8.28973 67.0532 8.06305 66.9686 7.80312C66.8839 7.53714 66.8356 7.24699 66.8235 6.93266C66.8174 6.82385 66.8144 6.72713 66.8144 6.6425C66.8144 6.55183 66.8174 6.45209 66.8235 6.34328C66.8356 6.04104 66.8809 5.75995 66.9595 5.50002C67.0441 5.24009 67.165 5.01341 67.3222 4.81998C67.4854 4.6205 67.6849 4.46635 67.9206 4.35754C68.1624 4.24874 68.4405 4.19433 68.7548 4.19433C69.0812 4.19433 69.3563 4.25176 69.5799 4.36661C69.8096 4.47542 70.0001 4.61747 70.1512 4.79277V2.77984C70.1512 2.71939 70.1693 2.66801 70.2056 2.62569C70.2479 2.58338 70.3023 2.56222 70.3688 2.56222H71.1395C71.2 2.56222 71.2513 2.58338 71.2937 2.62569C71.336 2.66801 71.3571 2.71939 71.3571 2.77984V8.78238C71.3571 8.84283 71.336 8.89421 71.2937 8.93653C71.2513 8.97884 71.2 9 71.1395 9H70.4232C70.3567 9 70.3023 8.97884 70.26 8.93653C70.2237 8.89421 70.2056 8.84283 70.2056 8.78238V8.44689C70.0545 8.63429 69.861 8.78843 69.6253 8.90933C69.3956 9.03022 69.1054 9.09067 68.7548 9.09067ZM69.0903 8.12047C69.3442 8.12047 69.5467 8.06305 69.6978 7.94819C69.8489 7.83334 69.9608 7.68826 70.0333 7.51296C70.1058 7.33162 70.1451 7.14725 70.1512 6.95986C70.1572 6.85105 70.1602 6.7362 70.1602 6.6153C70.1602 6.48836 70.1572 6.37048 70.1512 6.26168C70.1451 6.08033 70.1028 5.90805 70.0242 5.74484C69.9457 5.57558 69.8308 5.43655 69.6797 5.32775C69.5286 5.21894 69.3321 5.16453 69.0903 5.16453C68.8364 5.16453 68.6339 5.22196 68.4828 5.33681C68.3377 5.44562 68.2319 5.5907 68.1654 5.77204C68.0989 5.95339 68.0597 6.15287 68.0476 6.37048C68.0415 6.55183 68.0415 6.73318 68.0476 6.91452C68.0597 7.13214 68.0989 7.33162 68.1654 7.51296C68.2319 7.69431 68.3377 7.84241 68.4828 7.95726C68.6339 8.06607 68.8364 8.12047 69.0903 8.12047ZM76.7231 9.09067C76.2395 9.09067 75.8315 9.00604 75.499 8.83679C75.1726 8.66753 74.9218 8.42876 74.7465 8.12047C74.5772 7.81218 74.4805 7.45251 74.4563 7.04146C74.4503 6.93266 74.4472 6.79967 74.4472 6.6425C74.4472 6.48534 74.4503 6.35235 74.4563 6.24354C74.4805 5.82645 74.5802 5.46678 74.7555 5.16453C74.9369 4.85625 75.1908 4.61747 75.5172 4.44822C75.8496 4.27896 76.2516 4.19433 76.7231 4.19433C77.1946 4.19433 77.5936 4.27896 77.92 4.44822C78.2525 4.61747 78.5064 4.85625 78.6817 5.16453C78.863 5.46678 78.9658 5.82645 78.99 6.24354C78.996 6.35235 78.999 6.48534 78.999 6.6425C78.999 6.79967 78.996 6.93266 78.99 7.04146C78.9658 7.45251 78.866 7.81218 78.6907 8.12047C78.5215 8.42876 78.2706 8.66753 77.9381 8.83679C77.6117 9.00604 77.2067 9.09067 76.7231 9.09067ZM76.7231 8.19301C77.0435 8.19301 77.2913 8.09327 77.4666 7.89379C77.6419 7.68826 77.7387 7.38904 77.7568 6.99613C77.7628 6.90545 77.7659 6.78758 77.7659 6.6425C77.7659 6.49743 77.7628 6.37955 77.7568 6.28888C77.7387 5.90201 77.6419 5.60581 77.4666 5.40028C77.2913 5.19476 77.0435 5.092 76.7231 5.092C76.4027 5.092 76.1549 5.19476 75.9796 5.40028C75.8043 5.60581 75.7076 5.90201 75.6895 6.28888C75.6834 6.37955 75.6804 6.49743 75.6804 6.6425C75.6804 6.78758 75.6834 6.90545 75.6895 6.99613C75.7076 7.38904 75.8043 7.68826 75.9796 7.89379C76.1549 8.09327 76.4027 8.19301 76.7231 8.19301ZM80.2213 9C80.1608 9 80.1094 8.97884 80.0671 8.93653C80.0248 8.89421 80.0036 8.84283 80.0036 8.78238V4.50262C80.0036 4.44217 80.0248 4.39079 80.0671 4.34848C80.1094 4.30616 80.1608 4.28501 80.2213 4.28501H80.9648C81.0252 4.28501 81.0766 4.30616 81.1189 4.34848C81.1612 4.39079 81.1824 4.44217 81.1824 4.50262V4.87438C81.3396 4.68094 81.539 4.52076 81.7808 4.39381C82.0287 4.26083 82.3339 4.19433 82.6966 4.19433C83.0654 4.19433 83.3857 4.27896 83.6578 4.44822C83.9298 4.61143 84.1383 4.84416 84.2834 5.1464C84.4345 5.44864 84.5101 5.81133 84.5101 6.23447V8.78238C84.5101 8.84283 84.4889 8.89421 84.4466 8.93653C84.4043 8.97884 84.3529 9 84.2925 9H83.4946C83.4341 9 83.3827 8.97884 83.3404 8.93653C83.2981 8.89421 83.2769 8.84283 83.2769 8.78238V6.28888C83.2769 5.93828 83.1893 5.66324 83.014 5.46375C82.8447 5.26427 82.5969 5.16453 82.2705 5.16453C81.9561 5.16453 81.7053 5.26427 81.5179 5.46375C81.3305 5.66324 81.2368 5.93828 81.2368 6.28888V8.78238C81.2368 8.84283 81.2156 8.89421 81.1733 8.93653C81.131 8.97884 81.0796 9 81.0192 9H80.2213ZM89.6787 9C89.316 9 89.0108 8.93653 88.7629 8.80959C88.5151 8.68264 88.3307 8.49525 88.2098 8.24741C88.0889 7.99353 88.0285 7.6792 88.0285 7.30442V5.24614H87.3122C87.2517 5.24614 87.2003 5.22498 87.158 5.18267C87.1157 5.14035 87.0946 5.08897 87.0946 5.02852V4.50262C87.0946 4.44217 87.1157 4.39079 87.158 4.34848C87.2003 4.30616 87.2517 4.28501 87.3122 4.28501H88.0285V2.77984C88.0285 2.71939 88.0466 2.66801 88.0829 2.62569C88.1252 2.58338 88.1796 2.56222 88.2461 2.56222H88.9805C89.041 2.56222 89.0924 2.58338 89.1347 2.62569C89.177 2.66801 89.1982 2.71939 89.1982 2.77984V4.28501H90.3316C90.392 4.28501 90.4434 4.30616 90.4857 4.34848C90.528 4.39079 90.5492 4.44217 90.5492 4.50262V5.02852C90.5492 5.08897 90.528 5.14035 90.4857 5.18267C90.4434 5.22498 90.392 5.24614 90.3316 5.24614H89.1982V7.21374C89.1982 7.46158 89.2405 7.65502 89.3251 7.79405C89.4158 7.93308 89.5699 8.0026 89.7875 8.0026H90.4132C90.4736 8.0026 90.525 8.02375 90.5673 8.06607C90.6096 8.10838 90.6308 8.15976 90.6308 8.22021V8.78238C90.6308 8.84283 90.6096 8.89421 90.5673 8.93653C90.525 8.97884 90.4736 9 90.4132 9H89.6787ZM91.6618 9C91.6014 9 91.55 8.97884 91.5077 8.93653C91.4654 8.89421 91.4442 8.84283 91.4442 8.78238V2.77984C91.4442 2.71939 91.4654 2.66801 91.5077 2.62569C91.55 2.58338 91.6014 2.56222 91.6618 2.56222H92.4688C92.5353 2.56222 92.5867 2.58338 92.623 2.62569C92.6653 2.66801 92.6865 2.71939 92.6865 2.77984V4.84718C92.8497 4.65374 93.0491 4.49658 93.2849 4.37568C93.5206 4.25478 93.8108 4.19433 94.1554 4.19433C94.5241 4.19433 94.8445 4.27896 95.1165 4.44822C95.3946 4.61143 95.6091 4.84416 95.7603 5.1464C95.9114 5.44864 95.9869 5.81133 95.9869 6.23447V8.78238C95.9869 8.84283 95.9658 8.89421 95.9235 8.93653C95.8812 8.97884 95.8298 9 95.7693 9H94.9533C94.8928 9 94.8414 8.97884 94.7991 8.93653C94.7568 8.89421 94.7357 8.84283 94.7357 8.78238V6.28888C94.7357 5.93828 94.648 5.66324 94.4727 5.46375C94.3035 5.26427 94.0556 5.16453 93.7292 5.16453C93.4149 5.16453 93.161 5.26427 92.9675 5.46375C92.7801 5.66324 92.6865 5.93828 92.6865 6.28888V8.78238C92.6865 8.84283 92.6653 8.89421 92.623 8.93653C92.5867 8.97884 92.5353 9 92.4688 9H91.6618ZM99.1687 9.09067C98.4977 9.09067 97.9658 8.89724 97.5729 8.51037C97.18 8.12349 96.9684 7.57341 96.9382 6.86012C96.9321 6.79967 96.9291 6.72411 96.9291 6.63344C96.9291 6.53672 96.9321 6.46116 96.9382 6.40675C96.9623 5.95339 97.0651 5.56047 97.2464 5.22801C97.4338 4.89554 97.6907 4.64165 98.0172 4.46635C98.3436 4.28501 98.7274 4.19433 99.1687 4.19433C99.6583 4.19433 100.069 4.2971 100.402 4.50262C100.734 4.7021 100.985 4.98319 101.154 5.34588C101.324 5.70253 101.408 6.1166 101.408 6.5881V6.77851C101.408 6.83896 101.387 6.89034 101.345 6.93266C101.303 6.97497 101.248 6.99613 101.182 6.99613H98.1713C98.1713 6.99613 98.1713 7.00519 98.1713 7.02333C98.1713 7.04146 98.1713 7.05658 98.1713 7.06867C98.1774 7.28024 98.2166 7.47669 98.2892 7.65804C98.3678 7.83334 98.4796 7.9754 98.6247 8.0842C98.7758 8.19301 98.9541 8.24741 99.1596 8.24741C99.3289 8.24741 99.471 8.22324 99.5858 8.17488C99.7007 8.12047 99.7944 8.06002 99.8669 7.99353C99.9394 7.92704 99.9908 7.87263 100.021 7.83032C100.075 7.75778 100.118 7.71547 100.148 7.70338C100.184 7.68524 100.236 7.67617 100.302 7.67617H101.082C101.142 7.67617 101.191 7.69431 101.227 7.73058C101.269 7.76685 101.287 7.81218 101.281 7.86659C101.275 7.96331 101.224 8.08118 101.127 8.22021C101.037 8.35924 100.904 8.49525 100.728 8.62824C100.553 8.76123 100.332 8.87306 100.066 8.96373C99.8064 9.04836 99.5072 9.09067 99.1687 9.09067ZM98.1713 6.23447H100.175V6.20727C100.175 5.97152 100.136 5.766 100.057 5.5907C99.9787 5.4154 99.8639 5.27636 99.7128 5.1736C99.5616 5.07084 99.3803 5.01946 99.1687 5.01946C98.9571 5.01946 98.7758 5.07084 98.6247 5.1736C98.4736 5.27636 98.3587 5.4154 98.2801 5.5907C98.2076 5.766 98.1713 5.97152 98.1713 6.20727V6.23447Z" fill="white"/>
<path d="M30.716 25.7496C30.5879 25.7496 30.479 25.7048 30.3893 25.6151C30.2997 25.5254 30.2548 25.4165 30.2548 25.2884V12.7778C30.2548 12.6369 30.2997 12.5216 30.3893 12.4319C30.479 12.3422 30.5879 12.2974 30.716 12.2974H35.8663C36.8656 12.2974 37.7368 12.4575 38.4799 12.7778C39.223 13.0853 39.7995 13.5593 40.2095 14.1999C40.6195 14.8277 40.8244 15.6156 40.8244 16.5637C40.8244 17.5245 40.6195 18.3189 40.2095 18.9466C39.7995 19.5616 39.223 20.0228 38.4799 20.3303C37.7368 20.6378 36.8656 20.7915 35.8663 20.7915H33.0029V25.2884C33.0029 25.4165 32.9581 25.5254 32.8684 25.6151C32.7915 25.7048 32.6826 25.7496 32.5417 25.7496H30.716ZM32.9645 18.6584H35.7702C36.5133 18.6584 37.0834 18.4854 37.4806 18.1395C37.8778 17.7808 38.0763 17.2555 38.0763 16.5637C38.0763 15.9231 37.8906 15.4106 37.519 15.0263C37.1475 14.6291 36.5646 14.4305 35.7702 14.4305H32.9645V18.6584ZM41.8272 25.7496C41.6991 25.7496 41.5902 25.7048 41.5005 25.6151C41.4108 25.5254 41.366 25.4165 41.366 25.2884V12.5664C41.366 12.4383 41.4108 12.3294 41.5005 12.2397C41.5902 12.1501 41.6991 12.1052 41.8272 12.1052H43.4223C43.5504 12.1052 43.6593 12.1501 43.749 12.2397C43.8386 12.3294 43.8835 12.4383 43.8835 12.5664V25.2884C43.8835 25.4165 43.8386 25.5254 43.749 25.6151C43.6593 25.7048 43.5504 25.7496 43.4223 25.7496H41.8272ZM47.9893 25.9418C47.3231 25.9418 46.7209 25.8137 46.1828 25.5575C45.6447 25.2884 45.2155 24.9361 44.8952 24.5005C44.5878 24.0521 44.434 23.5524 44.434 23.0015C44.434 22.1047 44.7928 21.3937 45.5102 20.8684C46.2405 20.3303 47.2013 19.9716 48.3928 19.7922L51.0256 19.4079V19.0043C51.0256 18.4662 50.8911 18.0498 50.6221 17.7552C50.353 17.4605 49.8918 17.3132 49.2384 17.3132C48.7772 17.3132 48.3992 17.4092 48.1046 17.6014C47.8227 17.7808 47.6113 18.0242 47.4704 18.3317C47.3679 18.4982 47.2206 18.5815 47.0284 18.5815H45.5102C45.3693 18.5815 45.2604 18.5431 45.1835 18.4662C45.1195 18.3893 45.0874 18.2868 45.0874 18.1587C45.1002 17.9537 45.1835 17.7039 45.3373 17.4092C45.491 17.1146 45.7344 16.8327 46.0675 16.5637C46.4006 16.2818 46.8298 16.0448 47.3551 15.8526C47.8804 15.6605 48.5145 15.5644 49.2576 15.5644C50.0648 15.5644 50.7438 15.6669 51.2947 15.8718C51.8584 16.064 52.3068 16.3267 52.6399 16.6598C52.973 16.9929 53.2164 17.3836 53.3702 17.832C53.5239 18.2804 53.6008 18.7545 53.6008 19.2541V25.2884C53.6008 25.4165 53.5559 25.5254 53.4663 25.6151C53.3766 25.7048 53.2677 25.7496 53.1396 25.7496H51.5829C51.442 25.7496 51.3267 25.7048 51.237 25.6151C51.1602 25.5254 51.1217 25.4165 51.1217 25.2884V24.5389C50.9552 24.7824 50.731 25.013 50.4491 25.2308C50.1672 25.4357 49.8213 25.6087 49.4114 25.7496C49.0142 25.8778 48.5402 25.9418 47.9893 25.9418ZM48.6427 24.1161C49.0911 24.1161 49.4946 24.0201 49.8534 23.8279C50.2249 23.6357 50.5132 23.341 50.7181 22.9439C50.9359 22.5339 51.0448 22.0214 51.0448 21.4065V21.0029L49.1231 21.3104C48.3672 21.4257 47.8035 21.6115 47.432 21.8677C47.0604 22.1239 46.8747 22.4378 46.8747 22.8094C46.8747 23.0912 46.9579 23.3346 47.1245 23.5396C47.3038 23.7318 47.528 23.8791 47.7971 23.9816C48.0661 24.0713 48.348 24.1161 48.6427 24.1161ZM56.2646 29.401C56.1622 29.401 56.0725 29.3625 55.9956 29.2857C55.9187 29.2088 55.8803 29.1191 55.8803 29.0166C55.8803 28.9654 55.8803 28.9141 55.8803 28.8629C55.8931 28.8244 55.9187 28.7732 55.9572 28.7091L57.4561 25.1539L53.7664 16.4484C53.7151 16.3203 53.6895 16.2306 53.6895 16.1793C53.7023 16.064 53.7472 15.9679 53.824 15.8911C53.9009 15.8014 53.997 15.7565 54.1123 15.7565H55.6689C55.8226 15.7565 55.9379 15.795 56.0148 15.8718C56.0917 15.9487 56.1493 16.032 56.1878 16.1217L58.7437 22.4058L61.3765 16.1217C61.4149 16.0192 61.4726 15.9359 61.5495 15.8718C61.6263 15.795 61.7416 15.7565 61.8954 15.7565H63.4328C63.5353 15.7565 63.6249 15.795 63.7018 15.8718C63.7915 15.9487 63.8363 16.0384 63.8363 16.1409C63.8363 16.2178 63.8107 16.3203 63.7595 16.4484L58.3209 29.0358C58.2697 29.1383 58.2056 29.2216 58.1287 29.2857C58.0519 29.3625 57.9366 29.401 57.7828 29.401H56.2646ZM71.588 25.9418C70.3966 25.9418 69.3972 25.7689 68.5901 25.4229C67.7958 25.0642 67.1872 24.603 66.7645 24.0393C66.3545 23.4628 66.1367 22.8606 66.1111 22.2328C66.1111 22.1175 66.1495 22.0214 66.2264 21.9446C66.3032 21.8677 66.3993 21.8293 66.5146 21.8293H68.225C68.3915 21.8293 68.5132 21.8677 68.5901 21.9446C68.6798 22.0086 68.7567 22.0919 68.8207 22.1944C68.8976 22.4378 69.0449 22.6812 69.2627 22.9247C69.4805 23.1553 69.7752 23.3474 70.1467 23.5012C70.5311 23.6549 71.0115 23.7318 71.588 23.7318C72.5105 23.7318 73.1959 23.5781 73.6443 23.2706C74.1055 22.9631 74.3361 22.5467 74.3361 22.0214C74.3361 21.6499 74.2144 21.3552 73.971 21.1374C73.7276 20.9068 73.3496 20.7018 72.8372 20.5225C72.3375 20.3303 71.6713 20.1317 70.8386 19.9267C69.8777 19.6961 69.0706 19.4207 68.4172 19.1004C67.7766 18.7673 67.2897 18.3509 66.9566 17.8512C66.6363 17.3516 66.4762 16.7174 66.4762 15.9487C66.4762 15.2056 66.6748 14.5458 67.0719 13.9693C67.4819 13.3928 68.0584 12.938 68.8015 12.6049C69.5574 12.2718 70.4542 12.1052 71.492 12.1052C72.3247 12.1052 73.0614 12.2205 73.702 12.4511C74.3425 12.6689 74.8742 12.9636 75.297 13.3351C75.7198 13.6939 76.0401 14.0846 76.2579 14.5074C76.4885 14.9174 76.6102 15.3209 76.623 15.7181C76.623 15.8206 76.5846 15.9167 76.5077 16.0064C76.4437 16.0832 76.3476 16.1217 76.2195 16.1217H74.4322C74.3297 16.1217 74.2272 16.096 74.1248 16.0448C74.0223 15.9936 73.939 15.8975 73.8749 15.7565C73.7981 15.3594 73.5482 15.0199 73.1254 14.738C72.7027 14.4562 72.1582 14.3152 71.492 14.3152C70.8001 14.3152 70.2428 14.4433 69.82 14.6996C69.3972 14.9558 69.1859 15.353 69.1859 15.8911C69.1859 16.2498 69.2883 16.5509 69.4933 16.7943C69.7111 17.0249 70.0506 17.2299 70.5119 17.4092C70.9859 17.5886 71.6073 17.7808 72.376 17.9858C73.465 18.2292 74.3554 18.511 75.0472 18.8313C75.739 19.1516 76.2451 19.5616 76.5654 20.0613C76.8857 20.5481 77.0458 21.1695 77.0458 21.9254C77.0458 22.7709 76.8152 23.4948 76.354 24.0969C75.9056 24.6863 75.2714 25.1411 74.4514 25.4614C73.6315 25.7817 72.677 25.9418 71.588 25.9418ZM82.1884 25.7496C81.4197 25.7496 80.7728 25.6151 80.2475 25.3461C79.7222 25.077 79.3314 24.6799 79.0752 24.1546C78.819 23.6165 78.6909 22.9503 78.6909 22.156V17.7936H77.1727C77.0446 17.7936 76.9357 17.7488 76.846 17.6591C76.7563 17.5694 76.7115 17.4605 76.7115 17.3324V16.2178C76.7115 16.0896 76.7563 15.9807 76.846 15.8911C76.9357 15.8014 77.0446 15.7565 77.1727 15.7565H78.6909V12.5664C78.6909 12.4383 78.7293 12.3294 78.8062 12.2397C78.8958 12.1501 79.0111 12.1052 79.1521 12.1052H80.7087C80.8368 12.1052 80.9457 12.1501 81.0354 12.2397C81.1251 12.3294 81.1699 12.4383 81.1699 12.5664V15.7565H83.5721C83.7002 15.7565 83.8091 15.8014 83.8988 15.8911C83.9885 15.9807 84.0333 16.0896 84.0333 16.2178V17.3324C84.0333 17.4605 83.9885 17.5694 83.8988 17.6591C83.8091 17.7488 83.7002 17.7936 83.5721 17.7936H81.1699V21.9638C81.1699 22.4891 81.2596 22.899 81.439 23.1937C81.6311 23.4884 81.9578 23.6357 82.4191 23.6357H83.7451C83.8732 23.6357 83.9821 23.6806 84.0718 23.7702C84.1614 23.8599 84.2063 23.9688 84.2063 24.0969V25.2884C84.2063 25.4165 84.1614 25.5254 84.0718 25.6151C83.9821 25.7048 83.8732 25.7496 83.7451 25.7496H82.1884ZM88.9859 25.9418C87.9609 25.9418 87.0962 25.7624 86.3915 25.4037C85.6997 25.045 85.168 24.5389 84.7965 23.8855C84.4377 23.2321 84.2328 22.4698 84.1815 21.5987C84.1687 21.368 84.1623 21.0862 84.1623 20.7531C84.1623 20.42 84.1687 20.1381 84.1815 19.9075C84.2328 19.0235 84.4441 18.2612 84.8157 17.6206C85.2 16.9672 85.7381 16.4612 86.43 16.1025C87.1346 15.7437 87.9866 15.5644 88.9859 15.5644C89.9852 15.5644 90.8308 15.7437 91.5226 16.1025C92.2272 16.4612 92.7653 16.9672 93.1369 17.6206C93.5212 18.2612 93.739 19.0235 93.7903 19.9075C93.8031 20.1381 93.8095 20.42 93.8095 20.7531C93.8095 21.0862 93.8031 21.368 93.7903 21.5987C93.739 22.4698 93.5276 23.2321 93.1561 23.8855C92.7973 24.5389 92.2657 25.045 91.561 25.4037C90.8692 25.7624 90.0108 25.9418 88.9859 25.9418ZM88.9859 24.0393C89.6649 24.0393 90.1902 23.8279 90.5617 23.4051C90.9333 22.9695 91.1382 22.3353 91.1767 21.5026C91.1895 21.3104 91.1959 21.0606 91.1959 20.7531C91.1959 20.4456 91.1895 20.1958 91.1767 20.0036C91.1382 19.1837 90.9333 18.5559 90.5617 18.1203C90.1902 17.6847 89.6649 17.4669 88.9859 17.4669C88.3069 17.4669 87.7816 17.6847 87.41 18.1203C87.0385 18.5559 86.8335 19.1837 86.7951 20.0036C86.7823 20.1958 86.7759 20.4456 86.7759 20.7531C86.7759 21.0606 86.7823 21.3104 86.7951 21.5026C86.8335 22.3353 87.0385 22.9695 87.41 23.4051C87.7816 23.8279 88.3069 24.0393 88.9859 24.0393ZM95.0547 25.7496C94.9266 25.7496 94.8177 25.7048 94.728 25.6151C94.6383 25.5254 94.5935 25.4165 94.5935 25.2884V16.237C94.5935 16.096 94.6383 15.9807 94.728 15.8911C94.8177 15.8014 94.9266 15.7565 95.0547 15.7565H96.6113C96.7394 15.7565 96.8483 15.8014 96.938 15.8911C97.0405 15.9807 97.0918 16.096 97.0918 16.237V17.0249C97.3864 16.6149 97.7644 16.301 98.2256 16.0832C98.6996 15.8654 99.2441 15.7565 99.8591 15.7565H100.647C100.788 15.7565 100.897 15.8014 100.974 15.8911C101.063 15.9807 101.108 16.0896 101.108 16.2178V17.6014C101.108 17.7295 101.063 17.8384 100.974 17.9281C100.897 18.0178 100.788 18.0626 100.647 18.0626H99.148C98.5331 18.0626 98.0526 18.2356 97.7067 18.5815C97.3736 18.9274 97.2071 19.4015 97.2071 20.0036V25.2884C97.2071 25.4165 97.1622 25.5254 97.0725 25.6151C96.9829 25.7048 96.8676 25.7496 96.7266 25.7496H95.0547ZM105.435 25.9418C104.013 25.9418 102.886 25.5318 102.053 24.7119C101.22 23.8919 100.772 22.7261 100.708 21.2143C100.695 21.0862 100.688 20.926 100.688 20.7339C100.688 20.5289 100.695 20.3687 100.708 20.2534C100.759 19.2926 100.977 18.4598 101.361 17.7552C101.758 17.0505 102.303 16.5124 102.995 16.1409C103.686 15.7565 104.5 15.5644 105.435 15.5644C106.473 15.5644 107.344 15.7822 108.049 16.2178C108.753 16.6405 109.285 17.2363 109.644 18.005C110.003 18.7609 110.182 19.6385 110.182 20.6378V21.0413C110.182 21.1695 110.137 21.2784 110.047 21.368C109.958 21.4577 109.842 21.5026 109.701 21.5026H103.321C103.321 21.5026 103.321 21.5218 103.321 21.5602C103.321 21.5987 103.321 21.6307 103.321 21.6563C103.334 22.1047 103.417 22.5211 103.571 22.9054C103.738 23.277 103.975 23.5781 104.282 23.8087C104.602 24.0393 104.98 24.1546 105.416 24.1546C105.775 24.1546 106.076 24.1033 106.319 24.0008C106.563 23.8855 106.761 23.7574 106.915 23.6165C107.069 23.4756 107.178 23.3603 107.242 23.2706C107.357 23.1168 107.447 23.0272 107.511 23.0015C107.588 22.9631 107.696 22.9439 107.837 22.9439H109.49C109.618 22.9439 109.721 22.9823 109.798 23.0592C109.887 23.1361 109.926 23.2321 109.913 23.3474C109.9 23.5524 109.791 23.8023 109.586 24.0969C109.394 24.3916 109.112 24.6799 108.741 24.9617C108.369 25.2436 107.901 25.4806 107.338 25.6728C106.787 25.8521 106.153 25.9418 105.435 25.9418ZM103.321 19.8883H107.568V19.8306C107.568 19.331 107.485 18.8954 107.318 18.5239C107.152 18.1523 106.908 17.8577 106.588 17.6399C106.268 17.4221 105.884 17.3132 105.435 17.3132C104.987 17.3132 104.602 17.4221 104.282 17.6399C103.962 17.8577 103.718 18.1523 103.552 18.5239C103.398 18.8954 103.321 19.331 103.321 19.8306V19.8883Z" fill="white"/>
</svg>
